<?xml version="1.0" encoding="UTF-8"?>
<svg id="_图层_1" data-name="图层 1" xmlns="http://www.w3.org/2000/svg" viewBox="0 0 864.95 216.24">
  <defs>
    <style>
      .cls-1, .cls-2 {
        stroke-width: 0px;
      }

      .cls-1, .cls-3 {
        fill: #000;
      }

      .cls-4 {
        letter-spacing: -.02em;
      }

      .cls-2 {
        fill: #fff;
      }

      .cls-3 {
        font-family: Montserrat-Regular, Montserrat;
        font-size: 176.83px;
      }
    </style>
  </defs>
  <g>
    <g>
      <g>
        <path class="cls-2" d="M35.58,92.28v27.55c0,.98.83,1.77,1.81,1.77h39.38c.98,0,1.81-.79,1.81-1.77v-27.55c0-.98-.83-1.77-1.81-1.77h-39.38c-.98,0-1.81.79-1.81,1.77ZM57.06,103.53c0-3.9,3.62-7.05,8.12-7.05s8.15,3.15,8.15,7.05-3.66,7.08-8.15,7.08-8.12-3.18-8.12-7.08Z"/>
        <path class="cls-2" d="M63.93,192.31h86.04c12.38,0,22.42-8.72,22.42-19.48v-63.36l-10.91-8.3c-6.91-5.25-10.8-12.82-10.76-20.76l.3-34.5-69.46-7.64c-5.89-.66-11.85-.03-17.4,1.77l-25.52,8.4v42.08h38.13c.98,0,1.81.79,1.81,1.77v27.55c0,.98-.83,1.77-1.81,1.77h-38.13v51.23c0,1.94.3,3.77.94,5.51,2.42,7.22,9.51,12.66,18.2,13.74,1.06.16,2.15.23,3.28.23h2.87ZM53.51,77.62v-17.65l27.67,7.87v9.77h-27.67ZM74.46,142.36l8.23-5.67c-1.25,0-2.27-1.02-2.27-2.26v-27.22c0-1.25,1.02-2.26,2.27-2.26h10.04c1.25,0,2.27,1.02,2.27,2.26v27.22c0,.92-.57,1.74-1.4,2.1l3.32,5.84c0,5.41-5.06,9.77-11.25,9.77s-11.21-4.36-11.21-9.77ZM96.89,120.06v-28.01c0-.85.68-1.54,1.55-1.54h39.87c.83,0,1.55.69,1.55,1.54v28.01c0,.85-.72,1.54-1.55,1.54h-39.87c-.87,0-1.55-.69-1.55-1.54ZM99.08,77.62v-11.09l34.77-6.56v16.69l-34.77.95Z"/>
        <path class="cls-1" d="M38.64,37.44v10.99l25.52-8.4c5.55-1.8,11.51-2.43,17.4-1.77l69.46,7.64-.3,34.5c-.04,7.94,3.85,15.51,10.76,20.76l10.91,8.3V39.87c0-11.12-10.38-20.14-23.18-20.14H59.06c-11.29,0-20.42,7.94-20.42,17.71Z"/>
        <polygon class="cls-1" points="53.51 59.98 53.51 77.62 81.18 77.62 81.18 67.85 53.51 59.98"/>
        <path class="cls-1" d="M65.18,96.48c-4.49,0-8.12,3.15-8.12,7.05s3.62,7.08,8.12,7.08,8.15-3.18,8.15-7.08-3.66-7.05-8.15-7.05Z"/>
        <path class="cls-2" d="M82.69,136.69l-8.23,5.67c0,5.41,5.02,9.77,11.21,9.77s11.25-4.36,11.25-9.77l-3.32-5.84c-.26.1-.57.16-.87.16h-10.04Z"/>
        <path class="cls-2" d="M80.43,107.2v27.22c0,1.25,1.02,2.26,2.27,2.26h10.04c.3,0,.6-.07.87-.16.83-.36,1.4-1.18,1.4-2.1v-27.22c0-1.25-1.02-2.26-2.27-2.26h-10.04c-1.25,0-2.27,1.02-2.27,2.26Z"/>
        <path class="cls-2" d="M96.89,103.53v16.53c0,.85.68,1.54,1.55,1.54h39.87c.83,0,1.55-.69,1.55-1.54v-28.01c0-.85-.72-1.54-1.55-1.54h-24.27v5.97c4.49,0,8.15,3.15,8.15,7.05s-3.66,7.08-8.15,7.08-8.12-3.18-8.12-7.08h-9.02Z"/>
        <path class="cls-2" d="M96.89,92.05v11.48h9.02c0-3.9,3.62-7.05,8.12-7.05v-5.97h-15.59c-.87,0-1.55.69-1.55,1.54Z"/>
        <polygon class="cls-1" points="99.08 66.54 99.08 77.62 133.85 76.67 133.85 59.98 99.08 66.54"/>
        <path class="cls-1" d="M114.03,96.48c-4.49,0-8.12,3.15-8.12,7.05s3.62,7.08,8.12,7.08,8.15-3.18,8.15-7.08-3.66-7.05-8.15-7.05Z"/>
        <path class="cls-2" d="M172.39,109.47v26.86h2.83c8.34,0,15.1-5.87,15.1-13.12v-.07c0-7.22-6.76-13.12-15.1-13.12h-2.11l-.72-.56Z"/>
      </g>
      <g>
        <path class="cls-1" d="M149.97,196H61.06c-1.39,0-2.63-.09-3.8-.26-9.97-1.26-18.27-7.6-21.16-16.17-.76-2.09-1.15-4.36-1.15-6.73v-51.23c0-2.04,1.65-3.69,3.69-3.69s3.69,1.65,3.69,3.69v51.23c0,1.54.23,2.93.71,4.23.01.04.03.07.04.11,1.99,5.94,7.94,10.35,15.16,11.25.04,0,.07,0,.11.02.8.13,1.69.19,2.72.19h88.91c10.33,0,18.74-7.08,18.74-15.79V39.87c0-9.07-8.74-16.45-19.49-16.45H59.06c-9.23,0-16.74,6.29-16.74,14.02v53.03c0,2.04-1.65,3.69-3.69,3.69s-3.69-1.65-3.69-3.69v-53.03c0-11.8,10.82-21.4,24.11-21.4h90.15c14.82,0,26.87,10.69,26.87,23.83v132.96c0,12.78-11.71,23.17-26.11,23.17Z"/>
        <path class="cls-1" d="M175.22,140.02h-2.83c-2.04,0-3.69-1.65-3.69-3.69s1.65-3.69,3.69-3.69h2.83c6.29,0,11.41-4.23,11.41-9.43s-5.12-9.5-11.41-9.5h-2.11c-.82,0-1.62-.27-2.26-.78l-.72-.56-10.88-8.27c-7.81-5.93-12.26-14.57-12.21-23.71l.27-31.18-66.15-7.28c-5.31-.59-10.8-.03-15.86,1.61l-25.51,8.39c-1.93.63-4.02-.42-4.66-2.35-.64-1.93.42-4.02,2.35-4.66l25.52-8.4c6.07-1.97,12.63-2.64,18.96-1.93l69.46,7.64c1.88.21,3.3,1.81,3.28,3.7l-.3,34.5c-.03,6.79,3.36,13.28,9.3,17.79l10.66,8.1h.85c10.36,0,18.79,7.54,18.79,16.81s-8.43,16.87-18.79,16.87Z"/>
        <path class="cls-1" d="M138.3,125.29h-39.87c-2.89,0-5.24-2.35-5.24-5.23v-28.01c0-2.88,2.35-5.23,5.24-5.23h39.87c2.89,0,5.24,2.35,5.24,5.23v28.01c0,2.88-2.35,5.23-5.24,5.23ZM100.58,117.91h35.59v-23.72h-35.59v23.72Z"/>
        <path class="cls-1" d="M76.77,125.29h-39.38c-3.03,0-5.5-2.45-5.5-5.46v-27.55c0-3.01,2.47-5.46,5.5-5.46h39.38c3.03,0,5.5,2.45,5.5,5.46v27.55c0,3.01-2.47,5.46-5.5,5.46ZM39.27,117.91h35.62v-23.72h-35.62v23.72Z"/>
        <path class="cls-1" d="M92.73,140.38h-10.04c-3.28,0-5.95-2.67-5.95-5.95v-27.22c0-3.28,2.67-5.95,5.95-5.95h10.04c3.28,0,5.95,2.67,5.95,5.95v27.22c0,2.38-1.42,4.53-3.61,5.48l-.19.08c-.7.26-1.43.39-2.15.39ZM84.12,133h7.2v-24.37h-7.2v24.37Z"/>
        <path class="cls-1" d="M85.68,155.82c-8.22,0-14.9-6.04-14.9-13.46h7.38c0,3.36,3.38,6.09,7.52,6.09s7.56-2.73,7.56-6.09h7.38c0,7.42-6.7,13.46-14.94,13.46Z"/>
        <rect class="cls-1" x="61.69" y="191" width="4.41" height="1.31" transform="translate(-10.93 4) rotate(-3.3)"/>
      </g>
    </g>
    <path class="cls-1" d="M76.98,19.55S144.88-.68,169.33,27.06"/>
  </g>
  <text class="cls-3" transform="translate(206.63 168.72)"><tspan x="0" y="0">Ti</tspan><tspan class="cls-4" x="152.61" y="0">n</tspan><tspan x="267.02" y="0">yPic</tspan></text>
</svg>